<?xml version="1.0" encoding="utf-8"?>
<!-- Generator: Adobe Illustrator 19.2.1, SVG Export Plug-In . SVG Version: 6.00 Build 0)  -->
<svg version="1.1" id="Layer_1" xmlns="http://www.w3.org/2000/svg" xmlns:xlink="http://www.w3.org/1999/xlink" x="0px" y="0px"
	 viewBox="0 0 648 252" style="enable-background:new 0 0 648 252;" xml:space="preserve">
<style type="text/css">
	.st0{fill:#14377D;}
	.st1{fill:#999999;}
	.st2{font-family:'font142';}
	.st3{font-size:71.197px;}
	.st4{letter-spacing:3.8;}
	.st5{font-family:'BankGothicLtAT';}
	.st6{font-size:36.2496px;}
	.st7{letter-spacing:-2.1;}
</style>
<g>
	<path class="st0" d="M438.2,46.6c0,0-75.9-68.3-209.4-11.3c0,0-43,20.5-46.4,42c0,0-4.6,25.5,27.6,15c0,0,29.5-10.7,58.3-23.8
		C268.3,68.5,353.6,26.5,438.2,46.6z"/>
	<path class="st1" d="M407.7,72.6c-11-6.4-25.7-13.9-43.3-20.2c0,0,68.4-1.8,98.3,25.5c8.7,8,14.1,18.5,9.3,27.2
		c-2.9,5.3-11.9,1.9-19.8-2.8C446.2,98.8,421.8,80.8,407.7,72.6z"/>
	<text transform="matrix(1.0626 0 0 1 15.7197 194.5049)" class="st0 st2 st3 st4">PARACHUTE</text>
	<text transform="matrix(0.9743 0 0 1 16.2158 230.8359)" class="st1 st5 st6 st7">SOFT LANDINGS FOR HARD TIMES</text>
</g>
</svg>
