<?xml version="1.0" encoding="utf-8"?>
<!-- Generator: Adobe Illustrator 19.2.1, SVG Export Plug-In . SVG Version: 6.00 Build 0)  -->
<svg version="1.1" id="Layer_1" xmlns="http://www.w3.org/2000/svg" xmlns:xlink="http://www.w3.org/1999/xlink" x="0px" y="0px"
	 viewBox="0 0 291.6 95.2" style="enable-background:new 0 0 291.6 95.2;" xml:space="preserve">
<style type="text/css">
	.st0{fill:#FFFFFF;}
</style>
<path class="st0" d="M256,34c0,0-75.9-68.3-209.4-11.3c0,0-43,20.5-46.4,42c0,0-4.6,25.5,27.6,15c0,0,29.5-10.7,58.3-23.8
	C86.1,55.9,171.4,13.9,256,34z"/>
<path class="st0" d="M225.5,60c-11-6.4-25.7-13.9-43.3-20.2c0,0,68.4-1.8,98.3,25.5c8.7,8,14.1,18.5,9.3,27.2
	c-2.9,5.3-11.9,1.9-19.8-2.8C264,86.2,239.6,68.2,225.5,60z"/>
</svg>
